<mxfile host="app.diagrams.net" modified="2023-12-18T15:13:57.501Z" agent="Mozilla/5.0 (Macintosh; Intel Mac OS X 10_15_7) AppleWebKit/537.36 (KHTML, like Gecko) Chrome/120.0.0.0 Safari/537.36" etag="hEcZj_CVg3IYaFXrOeKa" version="22.1.11" type="device">
  <diagram name="Page-1" id="KsM21xVjpvnkNKA6bXkj">
    <mxGraphModel dx="1363" dy="761" grid="1" gridSize="10" guides="1" tooltips="1" connect="1" arrows="1" fold="1" page="1" pageScale="1" pageWidth="827" pageHeight="1169" math="0" shadow="0">
      <root>
        <mxCell id="0" />
        <mxCell id="1" parent="0" />
        <mxCell id="7boOSowle6dihX0rJjV7-1" style="edgeStyle=orthogonalEdgeStyle;rounded=0;orthogonalLoop=1;jettySize=auto;html=1;entryX=0.5;entryY=0;entryDx=0;entryDy=0;" edge="1" parent="1" source="7boOSowle6dihX0rJjV7-2" target="7boOSowle6dihX0rJjV7-4">
          <mxGeometry relative="1" as="geometry" />
        </mxCell>
        <mxCell id="7boOSowle6dihX0rJjV7-2" value="" style="ellipse;whiteSpace=wrap;html=1;aspect=fixed;fillColor=#000000;" vertex="1" parent="1">
          <mxGeometry x="265" y="60" width="30" height="30" as="geometry" />
        </mxCell>
        <mxCell id="7boOSowle6dihX0rJjV7-3" style="edgeStyle=orthogonalEdgeStyle;rounded=0;orthogonalLoop=1;jettySize=auto;html=1;exitX=0;exitY=0;exitDx=0;exitDy=0;" edge="1" parent="1" source="7boOSowle6dihX0rJjV7-4">
          <mxGeometry relative="1" as="geometry">
            <mxPoint x="220" y="170" as="targetPoint" />
            <Array as="points">
              <mxPoint x="180" y="280" />
              <mxPoint x="130" y="280" />
              <mxPoint x="130" y="120" />
              <mxPoint x="220" y="120" />
            </Array>
          </mxGeometry>
        </mxCell>
        <mxCell id="7boOSowle6dihX0rJjV7-9" style="edgeStyle=orthogonalEdgeStyle;rounded=0;orthogonalLoop=1;jettySize=auto;html=1;entryX=0;entryY=0.5;entryDx=0;entryDy=0;" edge="1" parent="1" source="7boOSowle6dihX0rJjV7-4" target="7boOSowle6dihX0rJjV7-8">
          <mxGeometry relative="1" as="geometry" />
        </mxCell>
        <mxCell id="7boOSowle6dihX0rJjV7-4" value="Validate" style="swimlane;whiteSpace=wrap;html=1;" vertex="1" parent="1">
          <mxGeometry x="180" y="180" width="200" height="200" as="geometry" />
        </mxCell>
        <mxCell id="7boOSowle6dihX0rJjV7-5" value="do/check user" style="text;html=1;align=center;verticalAlign=middle;resizable=0;points=[];autosize=1;strokeColor=none;fillColor=none;" vertex="1" parent="7boOSowle6dihX0rJjV7-4">
          <mxGeometry x="50" y="68" width="100" height="30" as="geometry" />
        </mxCell>
        <mxCell id="7boOSowle6dihX0rJjV7-6" value="Login" style="text;html=1;align=center;verticalAlign=middle;resizable=0;points=[];autosize=1;strokeColor=none;fillColor=none;" vertex="1" parent="1">
          <mxGeometry x="290" y="108" width="50" height="30" as="geometry" />
        </mxCell>
        <mxCell id="7boOSowle6dihX0rJjV7-7" value="[not valid]" style="text;html=1;align=center;verticalAlign=middle;resizable=0;points=[];autosize=1;strokeColor=none;fillColor=none;" vertex="1" parent="1">
          <mxGeometry x="50" y="180" width="70" height="30" as="geometry" />
        </mxCell>
        <mxCell id="7boOSowle6dihX0rJjV7-14" style="edgeStyle=orthogonalEdgeStyle;rounded=0;orthogonalLoop=1;jettySize=auto;html=1;entryX=0;entryY=0.5;entryDx=0;entryDy=0;" edge="1" parent="1" source="7boOSowle6dihX0rJjV7-8" target="7boOSowle6dihX0rJjV7-12">
          <mxGeometry relative="1" as="geometry" />
        </mxCell>
        <mxCell id="7boOSowle6dihX0rJjV7-8" value="Format selection" style="swimlane;whiteSpace=wrap;html=1;" vertex="1" parent="1">
          <mxGeometry x="590" y="180" width="260" height="200" as="geometry" />
        </mxCell>
        <mxCell id="7boOSowle6dihX0rJjV7-11" value="do/select source format and output format" style="text;html=1;align=center;verticalAlign=middle;resizable=0;points=[];autosize=1;strokeColor=none;fillColor=none;" vertex="1" parent="7boOSowle6dihX0rJjV7-8">
          <mxGeometry x="5" y="68" width="250" height="30" as="geometry" />
        </mxCell>
        <mxCell id="7boOSowle6dihX0rJjV7-10" value="[valid]/access document converter" style="text;html=1;align=center;verticalAlign=middle;resizable=0;points=[];autosize=1;strokeColor=none;fillColor=none;" vertex="1" parent="1">
          <mxGeometry x="380" y="248" width="200" height="30" as="geometry" />
        </mxCell>
        <mxCell id="7boOSowle6dihX0rJjV7-17" style="edgeStyle=orthogonalEdgeStyle;rounded=0;orthogonalLoop=1;jettySize=auto;html=1;entryX=0.5;entryY=1;entryDx=0;entryDy=0;" edge="1" parent="1" source="7boOSowle6dihX0rJjV7-12" target="7boOSowle6dihX0rJjV7-8">
          <mxGeometry relative="1" as="geometry">
            <Array as="points">
              <mxPoint x="1273" y="450" />
              <mxPoint x="720" y="450" />
            </Array>
          </mxGeometry>
        </mxCell>
        <mxCell id="7boOSowle6dihX0rJjV7-21" style="edgeStyle=orthogonalEdgeStyle;rounded=0;orthogonalLoop=1;jettySize=auto;html=1;entryX=0;entryY=0.5;entryDx=0;entryDy=0;" edge="1" parent="1" source="7boOSowle6dihX0rJjV7-12" target="7boOSowle6dihX0rJjV7-19">
          <mxGeometry relative="1" as="geometry" />
        </mxCell>
        <mxCell id="7boOSowle6dihX0rJjV7-12" value="validate document format" style="swimlane;whiteSpace=wrap;html=1;" vertex="1" parent="1">
          <mxGeometry x="1010" y="180" width="525" height="200" as="geometry" />
        </mxCell>
        <mxCell id="7boOSowle6dihX0rJjV7-16" value="do/check source format match document format and check output format different to src format" style="text;html=1;align=center;verticalAlign=middle;resizable=0;points=[];autosize=1;strokeColor=none;fillColor=none;" vertex="1" parent="7boOSowle6dihX0rJjV7-12">
          <mxGeometry x="-5" y="68" width="530" height="30" as="geometry" />
        </mxCell>
        <mxCell id="7boOSowle6dihX0rJjV7-15" value="[formats selected]" style="text;html=1;align=center;verticalAlign=middle;resizable=0;points=[];autosize=1;strokeColor=none;fillColor=none;" vertex="1" parent="1">
          <mxGeometry x="870" y="248" width="120" height="30" as="geometry" />
        </mxCell>
        <mxCell id="7boOSowle6dihX0rJjV7-18" value="[wrong format]" style="text;html=1;align=center;verticalAlign=middle;resizable=0;points=[];autosize=1;strokeColor=none;fillColor=none;" vertex="1" parent="1">
          <mxGeometry x="900" y="418" width="100" height="30" as="geometry" />
        </mxCell>
        <mxCell id="7boOSowle6dihX0rJjV7-25" style="edgeStyle=orthogonalEdgeStyle;rounded=0;orthogonalLoop=1;jettySize=auto;html=1;entryX=0.5;entryY=0;entryDx=0;entryDy=0;" edge="1" parent="1" source="7boOSowle6dihX0rJjV7-19" target="7boOSowle6dihX0rJjV7-24">
          <mxGeometry relative="1" as="geometry" />
        </mxCell>
        <mxCell id="7boOSowle6dihX0rJjV7-31" style="edgeStyle=orthogonalEdgeStyle;rounded=0;orthogonalLoop=1;jettySize=auto;html=1;entryX=0;entryY=0.5;entryDx=0;entryDy=0;" edge="1" parent="1" source="7boOSowle6dihX0rJjV7-19" target="7boOSowle6dihX0rJjV7-28">
          <mxGeometry relative="1" as="geometry" />
        </mxCell>
        <mxCell id="7boOSowle6dihX0rJjV7-19" value="Convert document" style="swimlane;whiteSpace=wrap;html=1;" vertex="1" parent="1">
          <mxGeometry x="1760" y="180" width="300" height="200" as="geometry" />
        </mxCell>
        <mxCell id="7boOSowle6dihX0rJjV7-23" value="do/process and convert document to output format" style="text;html=1;align=center;verticalAlign=middle;resizable=0;points=[];autosize=1;strokeColor=none;fillColor=none;" vertex="1" parent="7boOSowle6dihX0rJjV7-19">
          <mxGeometry x="5" y="78" width="290" height="30" as="geometry" />
        </mxCell>
        <mxCell id="7boOSowle6dihX0rJjV7-22" value="[correct format]" style="text;html=1;align=center;verticalAlign=middle;resizable=0;points=[];autosize=1;strokeColor=none;fillColor=none;" vertex="1" parent="1">
          <mxGeometry x="1600" y="248" width="100" height="30" as="geometry" />
        </mxCell>
        <mxCell id="7boOSowle6dihX0rJjV7-42" style="edgeStyle=orthogonalEdgeStyle;rounded=0;orthogonalLoop=1;jettySize=auto;html=1;entryX=0.5;entryY=0;entryDx=0;entryDy=0;" edge="1" parent="1" source="7boOSowle6dihX0rJjV7-24" target="7boOSowle6dihX0rJjV7-39">
          <mxGeometry relative="1" as="geometry" />
        </mxCell>
        <mxCell id="7boOSowle6dihX0rJjV7-24" value="Download" style="swimlane;whiteSpace=wrap;html=1;" vertex="1" parent="1">
          <mxGeometry x="1810" y="485" width="200" height="200" as="geometry" />
        </mxCell>
        <mxCell id="7boOSowle6dihX0rJjV7-27" value="do/make available for download" style="text;html=1;align=center;verticalAlign=middle;resizable=0;points=[];autosize=1;strokeColor=none;fillColor=none;" vertex="1" parent="7boOSowle6dihX0rJjV7-24">
          <mxGeometry x="5" y="70" width="190" height="30" as="geometry" />
        </mxCell>
        <mxCell id="7boOSowle6dihX0rJjV7-26" value="[successfully converted]" style="text;html=1;align=center;verticalAlign=middle;resizable=0;points=[];autosize=1;strokeColor=none;fillColor=none;" vertex="1" parent="1">
          <mxGeometry x="1910" y="418" width="150" height="30" as="geometry" />
        </mxCell>
        <mxCell id="7boOSowle6dihX0rJjV7-37" style="edgeStyle=orthogonalEdgeStyle;rounded=0;orthogonalLoop=1;jettySize=auto;html=1;exitX=0.5;exitY=0;exitDx=0;exitDy=0;" edge="1" parent="1" source="7boOSowle6dihX0rJjV7-28">
          <mxGeometry relative="1" as="geometry">
            <mxPoint x="2250" y="138" as="sourcePoint" />
            <mxPoint x="590" y="230" as="targetPoint" />
            <Array as="points">
              <mxPoint x="2380" y="100" />
              <mxPoint x="540" y="100" />
              <mxPoint x="540" y="230" />
            </Array>
          </mxGeometry>
        </mxCell>
        <mxCell id="7boOSowle6dihX0rJjV7-44" style="edgeStyle=orthogonalEdgeStyle;rounded=0;orthogonalLoop=1;jettySize=auto;html=1;entryX=1;entryY=0.5;entryDx=0;entryDy=0;" edge="1" parent="1" source="7boOSowle6dihX0rJjV7-28" target="7boOSowle6dihX0rJjV7-39">
          <mxGeometry relative="1" as="geometry">
            <Array as="points">
              <mxPoint x="2380" y="840" />
            </Array>
          </mxGeometry>
        </mxCell>
        <mxCell id="7boOSowle6dihX0rJjV7-28" value="Convert fail" style="swimlane;whiteSpace=wrap;html=1;" vertex="1" parent="1">
          <mxGeometry x="2280" y="180" width="200" height="200" as="geometry" />
        </mxCell>
        <mxCell id="7boOSowle6dihX0rJjV7-33" value="do/prompt user to retry or exit&amp;nbsp;" style="text;html=1;align=center;verticalAlign=middle;resizable=0;points=[];autosize=1;strokeColor=none;fillColor=none;" vertex="1" parent="7boOSowle6dihX0rJjV7-28">
          <mxGeometry x="10" y="68" width="180" height="30" as="geometry" />
        </mxCell>
        <mxCell id="7boOSowle6dihX0rJjV7-32" value="[could not convert]" style="text;html=1;align=center;verticalAlign=middle;resizable=0;points=[];autosize=1;strokeColor=none;fillColor=none;" vertex="1" parent="1">
          <mxGeometry x="2100" y="248" width="120" height="30" as="geometry" />
        </mxCell>
        <mxCell id="7boOSowle6dihX0rJjV7-38" value="Retry" style="text;html=1;align=center;verticalAlign=middle;resizable=0;points=[];autosize=1;strokeColor=none;fillColor=none;" vertex="1" parent="1">
          <mxGeometry x="2320" y="108" width="50" height="30" as="geometry" />
        </mxCell>
        <mxCell id="7boOSowle6dihX0rJjV7-39" value="" style="ellipse;whiteSpace=wrap;html=1;aspect=fixed;" vertex="1" parent="1">
          <mxGeometry x="1890" y="820" width="40" height="40" as="geometry" />
        </mxCell>
        <mxCell id="7boOSowle6dihX0rJjV7-40" value="" style="ellipse;whiteSpace=wrap;html=1;aspect=fixed;fillColor=#000000;" vertex="1" parent="1">
          <mxGeometry x="1895" y="825" width="30" height="30" as="geometry" />
        </mxCell>
        <mxCell id="7boOSowle6dihX0rJjV7-43" value="[Document downloaded]" style="text;html=1;align=center;verticalAlign=middle;resizable=0;points=[];autosize=1;strokeColor=none;fillColor=none;" vertex="1" parent="1">
          <mxGeometry x="1910" y="738" width="150" height="30" as="geometry" />
        </mxCell>
        <mxCell id="7boOSowle6dihX0rJjV7-45" value="exit document converter" style="text;html=1;align=center;verticalAlign=middle;resizable=0;points=[];autosize=1;strokeColor=none;fillColor=none;" vertex="1" parent="1">
          <mxGeometry x="2060" y="810" width="150" height="30" as="geometry" />
        </mxCell>
      </root>
    </mxGraphModel>
  </diagram>
</mxfile>
